<svg width="162" height="46" viewBox="0 0 162 46" fill="none" xmlns="http://www.w3.org/2000/svg">
<path d="M154.498 3.25203C156.849 3.25203 158.758 5.17259 158.758 7.53327V38.4756C158.758 40.8363 156.845 42.7524 154.498 42.7524H7.49791C5.14623 42.7524 3.23743 40.8318 3.23743 38.4756V7.52882C3.23743 5.16814 5.15066 3.24758 7.49791 3.24758H154.498M154.498 0.00219727H7.49791C3.35701 0.00219727 0 3.37206 0 7.52882V38.4711C0 42.6279 3.35701 45.9977 7.49791 45.9977H154.498C158.639 45.9977 161.996 42.6279 161.996 38.4711V7.52882C161.996 3.37206 158.639 0.00219727 154.498 0.00219727Z" fill="white"/>
<path d="M20.6823 32.5672C19.8807 31.7358 19.4511 30.1798 19.3094 27.0767C19.2828 26.6721 19.5662 26.561 19.8541 26.561L26.4707 26.6188C26.8737 26.6188 27.0154 26.7344 27.073 27.0811C27.2147 28.4904 27.3299 28.9217 27.6177 29.1795C27.9056 29.4685 28.4193 29.6686 29.9384 29.6686C31.3423 29.6686 31.9136 29.4952 32.2015 29.2062C32.4318 28.975 32.5159 28.5749 32.5159 27.8547C32.5159 27.0767 32.3742 26.6455 32.0864 26.3609C31.6568 25.9297 30.8552 25.8141 27.5912 25.4985C23.84 25.1517 21.7186 24.6093 20.6336 23.4845C19.7168 22.5376 19.3714 21.0127 19.3714 18.283C19.3714 15.8957 19.8585 14.2596 20.7753 13.3394C21.8648 12.2191 23.7824 11.5566 29.624 11.5566C35.4655 11.5566 37.6135 12.019 38.7605 13.1971C39.5621 14.0596 40.0227 15.5534 40.191 18.2297C40.2176 18.5765 40.0493 18.7454 39.6773 18.7454H33.2024C32.888 18.7454 32.6887 18.6876 32.6311 18.3986C32.4894 17.2472 32.3432 16.8737 32.1174 16.647C31.8605 16.358 31.3423 16.158 29.7967 16.158C28.2776 16.1891 27.7063 16.3002 27.3919 16.5892C27.1616 16.8204 27.0774 17.1938 27.0774 17.7095C27.0774 18.372 27.1616 18.6876 27.4494 18.9721C27.7949 19.3189 28.3928 19.4612 31.3999 19.7501C36.0988 20.1814 37.7596 20.5548 38.7339 21.5907C39.881 22.7688 40.253 24.2937 40.253 27.3968C40.253 30.2732 39.7393 31.7936 38.8801 32.6294C37.7906 33.7231 35.7578 34.2966 30.2883 34.3277C24.3316 34.3277 21.9533 33.8387 20.6956 32.5761L20.6823 32.5672Z" fill="white"/>
<path d="M47.8354 33.403C47.8354 29.0062 47.9506 22.0175 47.9771 17.7629L41.6174 17.8785C41.2144 17.8785 41.0461 17.7362 41.0461 17.3317C41.0461 15.7801 41.0195 14.1708 41.0195 12.5881C41.0195 12.1568 41.2498 11.9568 41.5908 11.9568C46.6042 11.8723 56.5424 11.8723 61.6399 11.9568C62.0119 11.9568 62.2112 12.1302 62.2112 12.5614C62.2112 14.1708 62.2112 15.7801 62.1846 17.3628C62.1846 17.7674 61.9543 17.9096 61.5247 17.8785L55.568 17.7629C55.568 22.5065 55.6832 28.8017 55.6832 33.403C55.6832 33.8076 55.4263 33.892 55.0233 33.892C52.7912 33.9187 50.754 33.9187 48.4953 33.892C48.0657 33.892 47.8354 33.8076 47.8354 33.403Z" fill="white"/>
<path d="M65.0765 32.4249C63.987 31.3046 63.646 29.3218 63.646 25.6408C63.646 20.5237 63.7301 15.8068 63.8453 12.4147C63.8453 12.0991 63.9294 11.9523 64.2749 11.9523C66.2235 11.8945 69.3148 11.8945 71.2059 11.9523C71.5513 11.9523 71.6931 12.0679 71.6931 12.4147C71.6355 15.8646 71.5779 20.4081 71.5779 25.0361C71.5779 26.5032 71.6045 26.9611 71.9499 27.3079C72.322 27.6813 72.8667 27.8547 74.1555 27.8547C75.2449 27.8547 75.8473 27.6547 76.1883 27.3079C76.5337 26.9611 76.5913 26.5032 76.5913 24.9517C76.5913 20.5237 76.5647 15.9802 76.5647 12.4191C76.5647 12.1035 76.6799 11.9568 77.0253 11.9568C78.8588 11.899 81.866 11.899 83.8412 11.9568C84.1556 11.9568 84.3284 12.0724 84.3284 12.4191C84.3859 15.6112 84.4435 20.9016 84.4435 26.192C84.4435 29.8731 84.1866 31.3935 83.0972 32.4605C81.9811 33.5808 80.09 34.3588 74.1599 34.3588C68.2298 34.3588 66.228 33.5808 65.0809 32.4338L65.0765 32.4249Z" fill="white"/>
<path d="M87.2158 33.3763C87.0741 28.0014 86.9855 17.8207 87.1317 12.4458C87.1317 12.1302 87.3044 11.9568 87.6189 11.9568H99.2754C103.142 11.9568 104.86 12.2724 106.065 13.4506C107.438 14.8021 108.186 17.4739 108.186 23.1956C108.186 28.9173 107.641 31.1001 106.441 32.3094C105.294 33.4608 103.518 33.892 99.426 33.892H87.6853C87.3709 33.892 87.2291 33.692 87.2291 33.3763H87.2158ZM97.7563 28.286C98.6421 28.286 99.2754 28.1126 99.6164 27.7391C99.9884 27.3924 100.245 26.6188 100.245 23.369C100.245 19.8924 99.9574 18.5987 99.4127 18.0519C99.0407 17.6784 98.4118 17.5629 97.6367 17.5629H94.8023C94.7447 19.9502 94.7447 25.8719 94.8023 28.286H97.7519H97.7563Z" fill="white"/>
<path d="M110.498 33.403C110.356 27.7124 110.356 17.794 110.498 12.4458C110.498 12.099 110.671 11.9568 111.012 11.9568C112.788 11.9256 115.737 11.9256 117.54 11.9568C117.854 11.9568 118.027 12.099 118.027 12.4458C118.169 17.8785 118.169 27.7969 118.027 33.403C118.027 33.7186 117.885 33.892 117.54 33.892C115.737 33.9187 112.757 33.9187 110.981 33.892C110.693 33.892 110.493 33.7186 110.493 33.403H110.498Z" fill="white"/>
<path d="M122.327 32.5672C121.038 31.2468 120.409 28.9172 120.409 23.1066C120.409 17.2961 121.127 14.682 122.415 13.3038C123.562 12.0946 125.852 11.5522 131.579 11.5522C137.305 11.5522 139.541 12.0679 140.715 13.3038C142.004 14.5975 142.664 17.1849 142.664 23.1066C142.664 29.0284 142.035 31.2157 140.804 32.5672C139.657 33.8031 137.194 34.2921 131.61 34.2921C126.025 34.2921 123.474 33.7453 122.331 32.5672H122.327ZM129.085 28.197C129.4 28.486 130.144 28.686 131.548 28.686C132.951 28.686 133.669 28.486 134.01 28.1392C134.471 27.6769 134.639 26.761 134.639 23.1066C134.639 19.2522 134.466 18.1319 134.01 17.674C133.664 17.3272 132.951 17.1271 131.548 17.1271C130.144 17.1271 129.484 17.3005 129.112 17.6428C128.625 18.1319 128.425 19.2833 128.425 23.1066C128.425 26.93 128.625 27.708 129.085 28.197Z" fill="white"/>
</svg>
