<svg id="Calque_1" data-name="Calque 1" xmlns="http://www.w3.org/2000/svg" width="150" height="150" viewBox="0 0 150 150">
  <title>Plan de travail 1</title>
  <g>
    <path d="M40,70l6.94,12c5.75-3.32,10.23-3.59,13,1.25,3.71,6.43-1.53,12.38-13.63,19.36s-19.52,9.15-23.36,2.5c-3-5.14.86-9.17,6.38-12.35l-6.94-12c-12.17,7-16,17-8.75,29.55,7.95,13.76,22.62,13.86,39.49,4.12,17.09-9.87,24.12-22.49,16.3-36C62.33,66.08,51.34,63.45,40,70"/>
    <path d="M97.53,47.71H83.64c0,6.64-2,10.65-7.6,10.65-7.42,0-10-7.51-10-21.48S67.93,15.4,75.61,15.4c5.94,0,7.51,5.33,7.51,11.7H97C97,13,90.28,4.75,75.79,4.75c-15.89,0-23.31,12.66-23.31,32.13C52.47,56.61,59.89,69,75.52,69c14.23,0,22-8.21,22-21.31"/>
    <path d="M120.61,73.67c-17.09-9.87-31.54-9.64-39.35,3.9-7.12,12.33-3.89,23.16,7.45,29.71l6.94-12c-5.75-3.32-8.22-7.07-5.43-11.91,3.71-6.43,11.48-4.87,23.58,2.12s17.69,12.33,13.84,19c-3,5.14-8.37,3.84-13.89.65l-6.94,12c12.17,7,22.72,5.35,30-7.2,7.95-13.76.69-26.52-16.17-36.26"/>
  </g>
</svg>
